<!--?xml version="1.0" standalone="no"?-->
              <svg id="sw-js-blob-svg" viewBox="0 0 100 100" xmlns="http://www.w3.org/2000/svg" version="1.1">
                    <defs> 
                        <linearGradient id="sw-gradient" x1="0" x2="1" y1="1" y2="0">
                            <stop id="stop1" stop-color="rgba(248, 117, 55, 1)" offset="0%"></stop>
                            <stop id="stop2" stop-color="rgba(251, 168, 31, 1)" offset="100%"></stop>
                        </linearGradient>
                    </defs>
                <path fill="url(#sw-gradient)" d="M26.8,-32.3C32.6,-27.1,33.6,-16.6,34.6,-6.7C35.7,3.2,36.8,12.6,33,19.1C29.3,25.6,20.6,29.3,11.7,32.7C2.8,36.2,-6.3,39.4,-14.3,37.3C-22.2,35.2,-28.8,27.9,-32.2,19.7C-35.5,11.6,-35.5,2.7,-33,-4.8C-30.4,-12.3,-25.4,-18.3,-19.5,-23.4C-13.6,-28.6,-6.8,-32.9,1.9,-35.1C10.5,-37.3,21,-37.4,26.8,-32.3Z" width="100%" height="100%" transform="translate(50 50)" stroke-width="0" style="transition: all 0.3s ease 0s;"></path>
              </svg>